<?xml version="1.0" encoding="utf-8"?>
<!-- Generator: Adobe Illustrator 27.1.1, SVG Export Plug-In . SVG Version: 6.00 Build 0)  -->
<svg version="1.1" id="Layer_1" xmlns="http://www.w3.org/2000/svg" xmlns:xlink="http://www.w3.org/1999/xlink" x="0px" y="0px"
	 width="960px" height="120px" viewBox="0 0 960 120" style="enable-background:new 0 0 960 120;" xml:space="preserve">
<style type="text/css">
	.st0{fill:#282D35;}
	.st1{fill:#67C7C5;}
	.st2{fill:#01CD73;}
</style>
<g>
	<g>
		<g>
			<path class="st0" d="M728.3,11.4L728.3,11.4C712.7,11.4,703,21.6,703,38v6.3h-7.3v12.3h7.3v34.8h12.3V56.6h7.3V44.4h-7.3V38
				c0-9.6,4.4-14.4,13.1-14.4v0h1.3V11.4H728.3z"/>
			<path class="st0" d="M941.4,47.6c-5,0-9.1,1.3-12.2,3.8c-2.9-2.3-6.8-3.8-12.1-3.8c-3.5,0-6.7,0.8-9.2,2.2l0-0.4h-8.8v43h12.3
				V65.8c0-4,1.1-5.9,5.9-5.9c5.1,0,6.1,1.9,6.1,5.9l0,26.6h12.3V65.8c0-4,1-5.9,5.8-5.9c4.7,0,6.2,1.9,6.2,5.9v26.6H960V64.6
				C960,57.8,955.1,47.6,941.4,47.6z"/>
			<path class="st0" d="M827.4,48.1c-2.4,0-4.4,0.3-6.3,0.9V28.9h-12.3v63.6h12.3V65.8c0-4,1.8-5.4,6.3-5.4c4.4,0,5.7,1.4,5.7,5.4
				v13v13.6h12.3V78.8v-13C845.3,54.7,838.6,48.1,827.4,48.1z"/>
			<path class="st0" d="M745.4,44.4h-12.2v12.3l12.1-0.2c7.7,0,9.9,3.8,10.7,7.6c-2.2-2.1-6.4-2.4-9.9-2.4
				c-9.4,0-18.7,4.7-18.7,15.6c0,5.8,2.4,9.3,4.5,11.3c3.3,3.2,8,4.8,14.1,4.8c0.4,0,0.8,0,1.2,0c3.5-0.1,6.8-1.3,9.1-2.7v1.9h12.3
				V66.2C768.7,52.7,759.8,44.4,745.4,44.4z M755.6,77.3c0,5.3-5.2,5.5-8.6,5.5c-3.7,0-8.6-0.2-8.6-5.5c0-5.3,5.2-5.5,8.6-5.5
				C750.8,71.8,755.6,71.9,755.6,77.3z"/>
			<polygon class="st0" points="792.6,44.3 792.6,28.9 780.3,28.9 780.3,44.3 775.5,44.3 775.5,56.6 780.3,56.6 780.3,92.4 
				792.6,92.4 792.6,56.6 801.4,56.6 801.4,44.3 			"/>
			<polygon class="st0" points="893.5,49.8 880.5,49.8 871.2,76.8 862.3,49.8 848.7,49.8 865.2,93.1 865.2,107.1 877,107.1 
				877,93.1 			"/>
		</g>
		<g>
			<path class="st1" d="M576.4,61.6l0.1,1c0.6,5.5,2.5,22.3,21.9,22.3c6.5,0,12.1-2.4,15.8-6.8c3.6-4.3,5.1-10.1,4.1-16
				c-0.7-3.9-1.9-7-3.1-10c-1.7-4.1-3.2-8-3.2-14.5c0-5.3,1.7-17.7,17.1-17.7c15.4,0,17.1,12.4,17.1,17.7c0,6.5-1.6,10.4-3.2,14.5
				c-1.2,3-2.4,6.1-3.1,10c-1,5.9,0.5,11.8,4.1,16c3.7,4.4,9.3,6.8,15.8,6.8c19.4,0,21.3-16.8,21.9-22.3l0.1-0.9
				c0.5-4.9,1-4.9,2.9-4.9V44.3c-8.9,0-14.1,5.4-15.2,15.9l-0.1,0.9c-0.9,8-2.4,11.3-9.6,11.3c-2.8,0-5-0.8-6.4-2.4
				c-1.3-1.5-1.8-3.7-1.4-6c0.4-2.6,1.3-4.8,2.4-7.4c1.8-4.5,4.1-10.2,4.1-19.1c0-15-9.1-30.2-29.5-30.2
				c-20.4,0-29.5,15.1-29.5,30.2c0,8.9,2.3,14.6,4.1,19.1c1,2.6,1.9,4.8,2.4,7.4c0.4,2.3-0.1,4.5-1.4,6c-1.3,1.6-3.5,2.4-6.4,2.4
				c-7.2,0-8.7-3.3-9.6-11.3l-0.1-0.9c-1.2-10.6-6.3-15.9-15.2-15.9v12.4C575.4,56.8,575.8,56.8,576.4,61.6z"/>
			<rect x="621.2" y="44.3" class="st1" width="5.8" height="10.1"/>
			<rect x="631.3" y="44.3" class="st1" width="5.8" height="10.1"/>
			<path class="st1" d="M681.3,91.1c-7.2,6.7-16.5,7.7-21.5,7.7c-9.4,0-17.6-3.6-23.2-10.2c-1.1-1.3-2.1-2.7-2.9-4.2l-1.9-3.3h-5.4
				l-1.9,3.3c-0.9,1.5-1.8,2.9-2.9,4.2c-5.6,6.6-13.8,10.2-23.2,10.2c-4.9,0-14.1-1-21.2-7.6l-7.1,7.7c9.8,9,22,10.3,28.4,10.3
				c12.3,0,23.1-4.7,30.7-13.4c7.6,8.6,18.5,13.4,30.7,13.4c6.5,0,18.8-1.4,28.7-10.6L681.3,91.1z"/>
		</g>
	</g>
	<g>
		<path class="st0" d="M74.8,26.4c18.8,0,37.6,0,56.5,0c5.9,0,7.7,1.7,7.7,7.7c0,20.2,0,40.5,0,60.7c0,5.2-2,7.2-7.2,7.2
			c-38.1,0-76.2,0-114.3,0c-5,0-7.2-2.2-7.2-7.2c0-20.1,0-40.1,0-60.2c0-6.5,1.7-8.2,8.1-8.2C37.1,26.4,56,26.4,74.8,26.4z
			 M66.2,64.2c0-9.5-7.1-16.7-16.6-16.7c-9.3,0-16.6,7.2-16.6,16.5c-0.1,9.5,7.5,17.1,16.8,17C59,80.9,66.2,73.4,66.2,64.2z
			 M116.2,64.2c0-9.4-7.2-16.7-16.7-16.7c-9.2,0-16.8,7.5-16.7,16.8C83,73.4,90.5,80.9,99.5,81C108.6,81.1,116.2,73.5,116.2,64.2z"
			/>
		<path class="st0" d="M74.5,112.5c-6.5,0-13.1,0-19.6,0c-3.5,0-4.9-1.2-5-3.9c-0.1-2.8,1.6-4.2,5.1-4.2c13.2,0,26.3,0,39.5,0
			c3.3,0,5,1.4,5,4c0.1,2.7-1.6,4.1-5.1,4.1C87.8,112.5,81.1,112.5,74.5,112.5z"/>
		<path class="st0" d="M74.8,24.4c-6.7,0-13.4,0-20.2,0c-3.2,0-4.7-1.2-4.7-3.8c0-2.7,1.5-4.1,4.8-4.1c13.3,0,26.5,0,39.8,0
			c0.4,0,0.9,0,1.3,0c2.3,0.3,3.8,1.9,3.7,4.1c-0.1,2.3-1.6,3.7-4,3.7C88.6,24.4,81.7,24.4,74.8,24.4z"/>
		<path class="st0" d="M141.5,64.1c0-5.7,0-11.3,0-17c0-2.9,1.4-4.4,3.9-4.4c2.4,0,4,1.6,4,4.4c0,11.4,0,22.8,0,34.2
			c0,2.7-1.7,4.5-4,4.5c-2.4,0-3.9-1.8-3.9-4.7C141.5,75.4,141.5,69.7,141.5,64.1z"/>
		<path class="st0" d="M0,64c0-5.6,0-11.1,0-16.7c0-3,1.5-4.7,4-4.6c2.5,0,4,1.8,4,4.7c0,11.2,0,22.5,0,33.7c0,3-1.6,4.7-4.1,4.7
			C1.6,85.8,0,83.9,0,81C0,75.3,0,69.7,0,64z"/>
		<g>
			<g>
				<path class="st2" d="M210,68.9h-22.1v13.2h24.6v11.2h-37.2V34.7h36V46h-23.4v11.7H210V68.9z"/>
				<path class="st2" d="M220.9,64.7c0-5.6-0.2-10.2-0.3-13.8H231l0.6,6h0.2c1.6-2.5,5.1-7,12.5-7c5.3,0,9.6,3,11.4,7.7h0.2
					c1.6-2.4,3.4-4.3,5.4-5.5c2.2-1.5,4.7-2.3,8-2.3c7.5,0,14,5.7,14,19.1v24.4H271V70.9c0-6.6-2.2-10.1-6.4-10.1
					c-3.1,0-5.2,2.3-6,4.9c-0.4,1-0.5,2.4-0.5,3.5v24.2H246v-23c0-6.1-2.3-9.6-6.3-9.6c-3.6,0-5.4,3-6.2,5c-0.4,1.1-0.5,2.3-0.5,3.4
					v24.1h-12.2V64.7z"/>
				<path class="st2" d="M334.9,71.5c0,14.9-10.4,22.9-22.3,22.9c-11.9,0-21.7-8.3-21.7-22c0-13.2,8.5-22.6,22.6-22.6
					C326.2,49.8,334.9,58.9,334.9,71.5z M304.1,72.1c0,7.2,3.4,12.5,9,12.5c5.1,0,8.8-4.5,8.8-12.6c0-6.4-2.7-12.6-8.8-12.6
					C306.7,59.4,304.1,65.7,304.1,72.1z"/>
				<path class="st2" d="M356.6,38.4v12.4h9v10.3h-9v14.1c0,5.2,0.9,7.9,5,7.9c1.7,0,3.1-0.2,3.9-0.4l0.1,10.4
					c-1.6,0.7-4.7,1.3-8.2,1.3c-4.2,0-7.7-1.7-9.6-4c-2.3-2.6-3.3-7-3.3-12.8V61.1H339V50.8h5.4v-9.3L356.6,38.4z"/>
				<path class="st2" d="M386.3,38.7c0,3.7-2.5,6.8-6.8,6.8c-4.1,0-6.6-3-6.6-6.8c0-3.7,2.5-6.7,6.7-6.7S386.2,35,386.3,38.7z
					 M373.3,93.4V50.8h12.6v42.5H373.3z"/>
				<path class="st2" d="M396.5,35.5c3.2-0.6,10.3-1.3,16.8-1.3c8.1,0,12.5,0.9,16.5,3c3.9,2,7.1,6,7.1,11.8c0,5.1-2.8,9.9-9.1,12.4
					v0.2c6,1.7,11,6.6,11,14.5c0,5.5-2.5,9.8-6.1,12.7c-4.2,3.4-11,5.2-22.1,5.2c-6.6,0-11.3-0.5-14.1-1V35.5z M409,57.7h4.4
					c7.3,0,10.7-2.7,10.7-7c0-4.5-3.5-6.5-9.3-6.5c-3.1,0-4.7,0.3-5.8,0.4V57.7z M409,83.6c1.3,0.3,3,0.3,5.4,0.3
					c5.9,0,11.1-2.2,11.1-8.4c0-5.8-5.1-7.9-11.8-7.9H409V83.6z"/>
				<path class="st2" d="M460.1,38.7c0,3.7-2.5,6.8-6.8,6.8c-4.1,0-6.6-3-6.6-6.8c0-3.7,2.5-6.7,6.7-6.7S460,35,460.1,38.7z
					 M447.1,93.4V50.8h12.6v42.5H447.1z"/>
				<path class="st2" d="M483.9,38.4v12.4h9v10.3h-9v14.1c0,5.2,0.9,7.9,5,7.9c1.7,0,3.1-0.2,3.9-0.4l0.1,10.4
					c-1.6,0.7-4.7,1.3-8.2,1.3c-4.2,0-7.7-1.7-9.6-4c-2.3-2.6-3.3-7-3.3-12.8V61.1h-5.4V50.8h5.4v-9.3L483.9,38.4z"/>
			</g>
		</g>
	</g>
	<polygon class="st0" points="553,58.6 540,58.6 540,45.6 528,45.6 528,58.6 514,58.6 514,70.6 528,70.6 528,84.6 540,84.6 
		540,70.6 553,70.6 	"/>
</g>
</svg>
